# xmcd
#
# Track frame offsets:
#	150
#	23143
#	42725
#	65594
#	92012
#	114479
#	130915
#	151045
#	174161
#	197143
#	215705
#	241531
#	258859
#
# Disc length: 3645 seconds
#
# Revision: 1
# Processed by: cddbd v1.5.2PL0 Copyright (c) Steve Scherf et al.
# Submitted via: audiograbber 1.83.01
#
DISCID=aa0e3b0d
DTITLE=Guy Penrod - Worship
DYEAR=2014
DGENRE=Gospel
TTITLE0=You Never Let Go
TTITLE1=Trading My Sorrows
TTITLE2=Shout To The Lord
TTITLE3=Revelation Song
TTITLE4=I Need You More
TTITLE5=Take My Life
TTITLE6=When Love Was Slain
TTITLE7=You Reign
TTITLE8=10.000 Reasons
TTITLE9=Through It All
TTITLE10=Amazing Love - Word Of God Speak
TTITLE11=Victory In Jesus
TTITLE12=I Will Be With You
EXTD=
EXTT0=
EXTT1=
EXTT2=
EXTT3=
EXTT4=
EXTT5=
EXTT6=
EXTT7=
EXTT8=
EXTT9=
EXTT10=
EXTT11=
EXTT12=
PLAYORDER=
